<svg width="30" height="30" viewBox="0 0 30 30" fill="none" xmlns="http://www.w3.org/2000/svg">
<path d="M21.25 19.375C21.25 19.8723 21.0525 20.3492 20.7008 20.7008C20.3492 21.0525 19.8723 21.25 19.375 21.25C18.8777 21.25 18.4008 21.0525 18.0492 20.7008C17.6975 20.3492 17.5 19.8723 17.5 19.375C17.5 18.8777 17.6975 18.4008 18.0492 18.0492C18.4008 17.6975 18.8777 17.5 19.375 17.5C19.8723 17.5 20.3492 17.6975 20.7008 18.0492C21.0525 18.4008 21.25 18.8777 21.25 19.375ZM10 1.875C10.2984 1.875 10.5845 1.99353 10.7955 2.2045C11.0065 2.41548 11.125 2.70163 11.125 3V3.75H18.875V3C18.875 2.70163 18.9935 2.41548 19.2045 2.2045C19.4155 1.99353 19.7016 1.875 20 1.875C20.2984 1.875 20.5845 1.99353 20.7955 2.2045C21.0065 2.41548 21.125 2.70163 21.125 3V3.81625C21.91 3.8825 22.6038 4.02125 23.2475 4.35C24.2818 4.8772 25.1228 5.71818 25.65 6.7525C25.9838 7.40625 26.1213 8.11125 26.1875 8.91C26.25 9.685 26.25 10.6425 26.25 11.8275V18.1725C26.25 19.3575 26.25 20.315 26.1875 21.09C26.1213 21.89 25.9838 22.5938 25.65 23.2475C25.1228 24.2818 24.2818 25.1228 23.2475 25.65C22.5938 25.9838 21.8888 26.1213 21.09 26.1875C20.315 26.25 19.3575 26.25 18.1725 26.25H11.8275C10.6425 26.25 9.685 26.25 8.91 26.1875C8.11 26.1213 7.40625 25.9838 6.7525 25.65C5.71818 25.1228 4.8772 24.2818 4.35 23.2475C4.01625 22.5938 3.87875 21.8888 3.8125 21.09C3.75 20.315 3.75 19.3575 3.75 18.1725V11.8275C3.75 10.6425 3.75 9.685 3.8125 8.91C3.87875 8.11 4.01625 7.40625 4.35 6.7525C4.8772 5.71818 5.71818 4.8772 6.7525 4.35C7.39625 4.02125 8.09 3.8825 8.875 3.81625V3C8.875 2.70163 8.99353 2.41548 9.2045 2.2045C9.41548 1.99353 9.70163 1.875 10 1.875ZM8.875 6.07625C8.3475 6.13375 8.025 6.22625 7.775 6.35375C7.16298 6.66542 6.66542 7.16298 6.35375 7.775C6.21 8.0575 6.11 8.43375 6.05625 9.0925C6.01 9.6475 6.0025 10.3313 6 11.25H24C23.9975 10.3313 23.99 9.6475 23.9438 9.0925C23.89 8.43375 23.79 8.0575 23.6462 7.775C23.3346 7.16298 22.837 6.66542 22.225 6.35375C21.975 6.22625 21.6525 6.13375 21.125 6.07625V7C21.125 7.29837 21.0065 7.58452 20.7955 7.7955C20.5845 8.00647 20.2984 8.125 20 8.125C19.7016 8.125 19.4155 8.00647 19.2045 7.7955C18.9935 7.58452 18.875 7.29837 18.875 7V6H11.125V7C11.125 7.14774 11.0959 7.29403 11.0394 7.43052C10.9828 7.56701 10.9 7.69103 10.7955 7.7955C10.691 7.89996 10.567 7.98283 10.4305 8.03936C10.294 8.0959 10.1477 8.125 10 8.125C9.85226 8.125 9.70597 8.0959 9.56948 8.03936C9.43299 7.98283 9.30897 7.89996 9.2045 7.7955C9.10004 7.69103 9.01717 7.56701 8.96064 7.43052C8.9041 7.29403 8.875 7.14774 8.875 7V6.07625ZM24 13.5H6V18.125C6 19.3687 6 20.2337 6.05625 20.9075C6.11 21.5662 6.21 21.9425 6.35375 22.225C6.66542 22.837 7.16298 23.3346 7.775 23.6462C8.0575 23.79 8.43375 23.89 9.09375 23.9438C9.76625 23.9988 10.6312 24 11.875 24H18.125C19.3687 24 20.2337 24 20.9075 23.9438C21.5662 23.89 21.9425 23.79 22.225 23.6462C22.837 23.3346 23.3346 22.837 23.6462 22.225C23.79 21.9425 23.89 21.5662 23.9438 20.9062C23.9988 20.2338 24 19.3687 24 18.125V13.5Z" fill="white"/>
</svg>
