<svg width="30" height="30" viewBox="0 0 30 30" fill="none" xmlns="http://www.w3.org/2000/svg">
<path d="M20.6686 18.9009L25.8839 24.1161C26.372 24.6043 26.372 25.3957 25.8839 25.8839C25.3957 26.372 24.6043 26.372 24.1161 25.8839L18.9009 20.6686C17.3818 21.8181 15.4893 22.5 13.4375 22.5C8.43242 22.5 4.375 18.4426 4.375 13.4375C4.375 8.43242 8.43242 4.375 13.4375 4.375C18.4426 4.375 22.5 8.43242 22.5 13.4375C22.5 15.4893 21.8181 17.3818 20.6686 18.9009ZM13.4375 20C17.0619 20 20 17.0619 20 13.4375C20 9.81313 17.0619 6.875 13.4375 6.875C9.81313 6.875 6.875 9.81313 6.875 13.4375C6.875 17.0619 9.81313 20 13.4375 20Z" fill="#23CC76"/>
</svg>
