<svg width="30" height="30" viewBox="0 0 30 30" fill="none" xmlns="http://www.w3.org/2000/svg">
<path fill-rule="evenodd" clip-rule="evenodd" d="M13.9563 3.875H16.0438C16.7063 3.875 17.27 3.875 17.7337 3.9125C18.2212 3.9525 18.6938 4.04 19.1463 4.27C19.8281 4.6175 20.3825 5.17189 20.73 5.85375C20.96 6.30625 21.0475 6.77875 21.0875 7.26625C21.1238 7.71 21.125 8.2475 21.125 8.875H22.2937C22.9562 8.875 23.5212 8.875 23.9837 8.9125C24.4713 8.9525 24.9437 9.04 25.3962 9.27C26.0781 9.6175 26.6325 10.1719 26.98 10.8537C27.21 11.3062 27.2975 11.7787 27.3375 12.2662C27.375 12.7288 27.375 13.2937 27.375 13.955V15.7925C27.375 16.2825 27.375 16.715 27.3463 17.075C27.315 17.4562 27.245 17.8525 27.0475 18.2375C26.7604 18.8024 26.3018 19.2618 25.7375 19.55C25.4525 19.695 25.1625 19.77 24.875 19.8125V20.545C24.875 21.295 24.875 21.9237 24.8325 22.4387C24.7887 22.9762 24.6937 23.4888 24.445 23.975C24.0678 24.716 23.4657 25.3185 22.725 25.6962C22.2388 25.9437 21.7275 26.0387 21.1887 26.0837C20.6737 26.125 20.0438 26.125 19.295 26.125H10.705C9.955 26.125 9.32625 26.125 8.81125 26.0825C8.27375 26.0387 7.76125 25.9437 7.27375 25.695C6.53325 25.3176 5.93118 24.7155 5.55375 23.975C5.30625 23.4888 5.21125 22.9775 5.16625 22.4387C5.125 21.9237 5.125 21.2938 5.125 20.545V19.8125C4.82492 19.772 4.53353 19.6825 4.2625 19.5475C3.69856 19.26 3.24002 18.8014 2.9525 18.2375C2.77674 17.8732 2.67519 17.4776 2.65375 17.0737C2.625 16.7137 2.625 16.2813 2.625 15.7913V13.9563C2.625 13.2938 2.625 12.73 2.6625 12.2662C2.7025 11.7787 2.79 11.3062 3.02 10.8537C3.3675 10.1719 3.92189 9.6175 4.60375 9.27C5.05625 9.04 5.53 8.9525 6.01625 8.9125C6.47875 8.875 7.04375 8.875 7.70625 8.875H8.875C8.875 8.2475 8.87625 7.71 8.9125 7.26625C8.9525 6.77875 9.04 6.30625 9.27 5.85375C9.6175 5.17189 10.1719 4.6175 10.8537 4.27C11.3062 4.04 11.78 3.9525 12.2662 3.9125C12.7288 3.875 13.2938 3.875 13.9563 3.875ZM6.75 17.625H23.25C23.7938 17.625 24.1337 17.625 24.39 17.6025C24.6325 17.5838 24.7 17.5512 24.715 17.5437C24.8566 17.4718 24.9718 17.3566 25.0437 17.215C25.0512 17.2 25.0837 17.1325 25.1038 16.89C25.1238 16.6338 25.125 16.2937 25.125 15.75V14C25.125 13.2813 25.125 12.81 25.095 12.45C25.0662 12.1025 25.0175 11.9575 24.975 11.875C24.8433 11.6167 24.6333 11.4067 24.375 11.275C24.2913 11.2325 24.1475 11.1837 23.8 11.155C23.2839 11.1266 22.7669 11.1166 22.25 11.125H7.75C7.03125 11.125 6.56 11.125 6.2 11.155C5.8525 11.1837 5.70875 11.2325 5.625 11.275C5.36675 11.4067 5.15674 11.6167 5.025 11.875C4.9825 11.9575 4.93375 12.1025 4.905 12.45C4.87625 12.81 4.875 13.2813 4.875 14V15.75C4.875 16.2937 4.875 16.6338 4.89625 16.89C4.91625 17.1325 4.94875 17.2 4.95625 17.215C5.02824 17.3566 5.14336 17.4718 5.285 17.5437C5.3 17.5512 5.3675 17.5838 5.61 17.6025C5.86625 17.6238 6.20625 17.625 6.75 17.625ZM7.375 19.875V20.5C7.375 21.3062 7.375 21.8425 7.41 22.2563C7.4425 22.655 7.5 22.8375 7.56 22.9538C7.72125 23.2712 7.97875 23.5287 8.2975 23.6912C8.4125 23.75 8.595 23.8075 8.995 23.8412C9.4075 23.8737 9.945 23.875 10.75 23.875H19.25C20.0562 23.875 20.5925 23.875 21.0063 23.84C21.4062 23.8075 21.5875 23.75 21.7038 23.69C22.0212 23.5287 22.2787 23.2712 22.4412 22.9525C22.5 22.8375 22.5575 22.655 22.5912 22.2563C22.6237 21.8438 22.625 21.3062 22.625 20.5V19.875H7.375ZM18.845 7.45C18.8725 7.78875 18.875 8.225 18.875 8.875H11.125C11.125 8.225 11.1275 7.78875 11.155 7.45C11.1838 7.1025 11.2325 6.9575 11.275 6.875C11.4067 6.61675 11.6167 6.40674 11.875 6.275C11.9587 6.2325 12.1025 6.18375 12.45 6.155C12.81 6.12625 13.2813 6.125 14 6.125H16C16.7188 6.125 17.19 6.125 17.55 6.155C17.8975 6.18375 18.0425 6.2325 18.125 6.275C18.3833 6.40674 18.5933 6.61675 18.725 6.875C18.7675 6.9575 18.8162 7.1025 18.845 7.45Z" fill="white"/>
</svg>
